<svg width="12" height="13" viewBox="0 0 12 13" fill="none" xmlns="http://www.w3.org/2000/svg">
<path d="M2.5 7.00301C2.36739 7.00301 2.24022 7.05569 2.14645 7.14946C2.05268 7.24323 2 7.37041 2 7.50301V9.50301C2 9.63562 2.05268 9.7628 2.14645 9.85657C2.24022 9.95034 2.36739 10.003 2.5 10.003C2.63261 10.003 2.75979 9.95034 2.85355 9.85657C2.94732 9.7628 3 9.63562 3 9.50301V9.33701H3.333C3.64251 9.33701 3.93934 9.21406 4.15819 8.99521C4.37705 8.77635 4.5 8.47952 4.5 8.17001C4.5 7.86051 4.37705 7.56368 4.15819 7.34482C3.93934 7.12597 3.64251 7.00301 3.333 7.00301H2.5ZM3.333 8.33701H3V8.00301H3.333C3.37729 8.00301 3.41977 8.02061 3.45109 8.05193C3.48241 8.08325 3.5 8.12572 3.5 8.17001C3.5 8.21431 3.48241 8.25678 3.45109 8.2881C3.41977 8.31942 3.37729 8.33701 3.333 8.33701ZM8.001 7.50201C8.00127 7.36958 8.05406 7.24266 8.1478 7.14911C8.24154 7.05555 8.36857 7.00301 8.501 7.00301H9.499C9.63161 7.00301 9.75879 7.05569 9.85255 7.14946C9.94632 7.24323 9.999 7.37041 9.999 7.50301C9.999 7.63562 9.94632 7.7628 9.85255 7.85657C9.75879 7.95034 9.63161 8.00301 9.499 8.00301H8.999V8.33801H9.499C9.63161 8.33801 9.75879 8.39069 9.85255 8.48446C9.94632 8.57823 9.999 8.70541 9.999 8.83801C9.999 8.97062 9.94632 9.0978 9.85255 9.19157C9.75879 9.28534 9.63161 9.33801 9.499 9.33801H9V9.50201C9.00013 9.56767 8.98733 9.63272 8.96232 9.69343C8.93732 9.75414 8.9006 9.80934 8.85426 9.85586C8.76068 9.94982 8.63361 10.0027 8.501 10.003C8.36839 10.0033 8.24111 9.95086 8.14715 9.85728C8.0532 9.76369 8.00027 9.63662 8 9.50401V7.50201H8.001ZM5.498 7.00301C5.36539 7.00301 5.23822 7.05569 5.14445 7.14946C5.05068 7.24323 4.998 7.37041 4.998 7.50301V9.50301C4.998 9.63562 5.05068 9.7628 5.14445 9.85657C5.23822 9.95034 5.36539 10.003 5.498 10.003H6C6.39783 10.003 6.77936 9.84498 7.06066 9.56367C7.34197 9.28237 7.5 8.90084 7.5 8.50301C7.5 8.10519 7.34197 7.72366 7.06066 7.44235C6.77936 7.16105 6.39783 7.00301 6 7.00301H5.498ZM5.998 9.00301V8.00301H6C6.13261 8.00301 6.25979 8.05569 6.35355 8.14946C6.44732 8.24323 6.5 8.37041 6.5 8.50301C6.5 8.63562 6.44732 8.7628 6.35355 8.85657C6.25979 8.95034 6.13261 9.00301 6 9.00301H5.998ZM7 0.00201416H2.5C2.10218 0.00201416 1.72065 0.160049 1.43934 0.441354C1.15804 0.722658 1 1.10419 1 1.50201V5.08401C0.707262 5.18751 0.453855 5.37931 0.27474 5.63293C0.0956256 5.88656 -0.000368647 6.18952 1.06392e-06 6.50001V10.503C1.06392e-06 10.9008 0.158036 11.2824 0.439341 11.5637C0.720646 11.845 1.10218 12.003 1.5 12.003H10.5C10.8978 12.003 11.2794 11.845 11.5607 11.5637C11.842 11.2824 12 10.9008 12 10.503V6.49901C12.0002 6.18869 11.9041 5.88595 11.725 5.63252C11.5459 5.3791 11.2926 5.18746 11 5.08401V4.00001H8.5C8.10218 4.00001 7.72064 3.84198 7.43934 3.56067C7.15804 3.27937 7 2.89784 7 2.50001V0.00201416ZM1.5 5.99901H10.5C10.6326 5.99901 10.7598 6.05169 10.8536 6.14546C10.9473 6.23923 11 6.36641 11 6.49901V10.502C11 10.6346 10.9473 10.7618 10.8536 10.8556C10.7598 10.9493 10.6326 11.002 10.5 11.002H1.5C1.36739 11.002 1.24022 10.9493 1.14645 10.8556C1.05268 10.7618 1 10.6346 1 10.502V6.49901C1 6.36641 1.05268 6.23923 1.14645 6.14546C1.24022 6.05169 1.36739 5.99901 1.5 5.99901ZM10.706 2.99901H8.5C8.36739 2.99901 8.24022 2.94634 8.14645 2.85257C8.05268 2.7588 8 2.63162 8 2.49901V0.298014L10.706 2.99901Z" fill="#D22121"/>
</svg>
