<svg width="12" height="14" viewBox="0 0 12 14" fill="none" xmlns="http://www.w3.org/2000/svg">
<path d="M7.05717 0.333313C7.41076 0.333389 7.74985 0.473914 7.99984 0.72398L10.9425 3.66665C11.1926 3.91664 11.3331 4.25572 11.3332 4.60931V12.3333C11.3332 12.6869 11.1927 13.0261 10.9426 13.2761C10.6926 13.5262 10.3535 13.6666 9.99984 13.6666H1.99984C1.64622 13.6666 1.30708 13.5262 1.05703 13.2761C0.80698 13.0261 0.666504 12.6869 0.666504 12.3333V1.66665C0.666504 1.31302 0.80698 0.973886 1.05703 0.723837C1.30708 0.473789 1.64622 0.333313 1.99984 0.333313H7.05717ZM5.99984 1.66665H1.99984V12.3333H9.99984V5.66665H6.99984C6.75125 5.66663 6.51158 5.57403 6.32756 5.4069C6.14354 5.23977 6.02837 5.01009 6.0045 4.76265L5.99984 4.66665V1.66665ZM7.37584 7.43265C7.4359 7.27395 7.55422 7.14413 7.70669 7.06964C7.85915 6.99515 8.03428 6.9816 8.19638 7.03176C8.35848 7.08191 8.49536 7.19199 8.57912 7.33956C8.66288 7.48713 8.68722 7.66109 8.64717 7.82598L8.62384 7.90065L7.6865 10.4006C7.45917 11.0073 6.62784 11.034 6.34784 10.4806L6.31317 10.4006L5.99984 9.56531L5.6865 10.4006C5.45917 11.0073 4.62784 11.034 4.34784 10.4806L4.31317 10.4006L3.37584 7.90065C3.31664 7.74153 3.32037 7.56583 3.38627 7.40937C3.45217 7.25292 3.57528 7.1275 3.73049 7.0587C3.88569 6.9899 4.06129 6.9829 4.22148 7.03914C4.38166 7.09537 4.51436 7.2106 4.5925 7.36131L4.62384 7.43265L4.99984 8.43465L5.31317 7.59931C5.5405 6.99265 6.37184 6.96598 6.65184 7.51931L6.6865 7.59931L6.99984 8.43465L7.37584 7.43265ZM7.33317 1.94265V4.33331H9.72384L7.33317 1.94265Z" fill="#007BFF"/>
</svg>
